/vscmnt/brussel_pixiu_data/_data_brussel/112/vsc11236/PredSimResults/SUBJ09opt3D/expIG/worker_03.mot
version=1
nRows=4
nColumns=50
inDegrees=yes
endheader
                time	         pelvis_tilt	         pelvis_list	     pelvis_rotation	           pelvis_tx	           pelvis_ty	           pelvis_tz	       hip_flexion_r	     hip_adduction_r	      hip_rotation_r	        knee_angle_r	       ankle_angle_r	         mtp_angle_r	       hip_flexion_l	     hip_adduction_l	      hip_rotation_l	        knee_angle_l	       ankle_angle_l	         mtp_angle_l	    lumbar_extension	      lumbar_bending	     lumbar_rotation	 ercspn_r/activation	 intobl_r/activation	 extobl_r/activation	    abd_r/activation	    add_r/activation	hamstrings_r/activation	bifemsh_r/activation	glut_max_r/activation	iliopsoas_r/activation	rect_fem_r/activation	  vasti_r/activation	gastroc_r/activation	 soleus_r/activation	tib_ant_r/activation	 ercspn_l/activation	 intobl_l/activation	 extobl_l/activation	    abd_l/activation	    add_l/activation	hamstrings_l/activation	bifemsh_l/activation	glut_max_l/activation	iliopsoas_l/activation	rect_fem_l/activation	  vasti_l/activation	gastroc_l/activation	 soleus_l/activation	tib_ant_l/activation	
          0.00000000	         -2.10227578	         -0.45726439	          5.96037657	          0.00000000	          1.00497913	         -0.00838917	         22.50834484	         -1.31366175	         -9.90578456	         -1.35131141	          1.37262013	          0.20758564	         -8.67568692	         -2.41580217	        -12.05826786	        -13.11045039	          9.80827247	         26.30913653	        -14.52078664	         -3.25818131	         -6.71708951	          0.01287148	          0.21961690	          0.06861318	          0.00999999	          0.20128432	          0.01000005	          0.02811074	          0.01000000	          0.09419408	          0.03807262	          0.01958680	          0.01000000	          0.00999999	          0.27728735	          0.01000007	          0.01000001	          0.01000000	          0.06638254	          0.01000004	          0.01112565	          0.08713260	          0.03828935	          0.01265242	          0.01000038	          0.01000001	          0.22946941	          0.26052853	          0.01000001	
          0.01591458	         -2.22793258	         -0.41245229	          5.85942556	          0.01669715	          1.00289941	         -0.00680549	         21.83081475	         -1.12185314	        -10.17427978	         -1.36212708	          0.84698598	          0.21632991	         -9.27429541	         -2.58430396	        -12.71287778	        -13.60838899	          9.34212469	         27.55830809	        -14.02561297	         -2.88793621	         -6.84373049	          0.01017314	          0.21378050	          0.05422925	          0.00999999	          0.16961619	          0.02718625	          0.02221780	          0.01115631	          0.07444742	          0.03009116	          0.01548067	          0.01600851	          0.01396953	          0.28517785	          0.01000001	          0.01000001	          0.01000002	          0.05246624	          0.01000003	          0.02526145	          0.06886631	          0.04102451	          0.01000004	          0.01000006	          0.01095267	          0.21633423	          0.24829835	          0.00999999	
          0.03182916	         -2.33415683	         -0.42530349	          5.72007400	          0.03396339	          1.00106307	         -0.00518371	         21.05309796	         -0.92579388	        -10.39666654	         -1.45819807	          0.18959799	          0.20898121	         -9.83298785	         -2.83407830	        -13.39952605	        -14.25830689	          8.72062100	         28.85058004	        -13.47748645	         -2.42310505	         -6.94457130	          0.01000002	          0.20499199	          0.04286074	          0.04516797	          0.13405820	          0.03738249	          0.03704610	          0.01000000	          0.05884042	          0.02378291	          0.01223535	          0.01265252	          0.01104099	          0.32962408	          0.01000013	          0.01000000	          0.01000003	          0.04146732	          0.01000009	          0.03288478	          0.05442933	          0.03242422	          0.01000008	          0.01000005	          0.02343615	          0.19716895	          0.23053803	          0.00999999	
          0.04774374	         -2.42505672	         -0.48555437	          5.52943340	          0.05147121	          0.99979931	         -0.00347304	         20.26371201	         -0.68540078	        -10.76159804	         -1.54034894	         -0.56845812	          0.18774162	        -10.26755925	         -3.16653312	        -14.10693348	        -15.15346500	          7.85157292	         30.19218878	        -12.91564567	         -1.88138842	         -7.01385721	          0.01000006	          0.16201789	          0.03387550	          0.07437859	          0.11343545	          0.05221936	          0.02927986	          0.02537484	          0.04650523	          0.01879711	          0.02502112	          0.01000008	          0.01000000	          0.35944194	          0.01000001	          0.01000000	          0.01000004	          0.03277420	          0.01000001	          0.03519870	          0.04301889	          0.02562688	          0.01000004	          0.01000005	          0.02405558	          0.16369142	          0.20717754	          0.01000000	
